<mxfile host="Electron" modified="2024-05-11T05:57:23.266Z" agent="Mozilla/5.0 (Macintosh; Intel Mac OS X 10_15_7) AppleWebKit/537.36 (KHTML, like Gecko) draw.io/24.2.5 Chrome/120.0.6099.109 Electron/28.1.0 Safari/537.36" etag="UDBvYMvB_qpheDwqYe4B" version="24.2.5" type="device">
  <diagram name="Page-1" id="JdaDJUileMlv1bctrKf7">
    <mxGraphModel dx="1060" dy="678" grid="1" gridSize="10" guides="1" tooltips="1" connect="1" arrows="1" fold="1" page="1" pageScale="1" pageWidth="827" pageHeight="1169" math="0" shadow="0">
      <root>
        <mxCell id="0" />
        <mxCell id="1" parent="0" />
        <mxCell id="7N4UthXNP-1G5cpcZOay-1" value="" style="rounded=0;whiteSpace=wrap;html=1;strokeColor=none;" vertex="1" parent="1">
          <mxGeometry x="270" y="300" width="380" height="270" as="geometry" />
        </mxCell>
        <mxCell id="7N4UthXNP-1G5cpcZOay-2" value="" style="group;flipH=1;" vertex="1" connectable="0" parent="1">
          <mxGeometry x="320" y="488" width="320" height="20" as="geometry" />
        </mxCell>
        <mxCell id="7N4UthXNP-1G5cpcZOay-3" value="" style="rounded=0;whiteSpace=wrap;html=1;strokeColor=none;fillColor=#f5f5f5;fontColor=#333333;" vertex="1" parent="7N4UthXNP-1G5cpcZOay-2">
          <mxGeometry x="160" width="80" height="20" as="geometry" />
        </mxCell>
        <mxCell id="7N4UthXNP-1G5cpcZOay-4" value="" style="endArrow=none;html=1;rounded=0;edgeStyle=orthogonalEdgeStyle;endFill=0;" edge="1" parent="7N4UthXNP-1G5cpcZOay-2">
          <mxGeometry width="50" height="50" relative="1" as="geometry">
            <mxPoint x="320" y="20" as="sourcePoint" />
            <mxPoint x="236" as="targetPoint" />
            <Array as="points">
              <mxPoint x="320" y="20" />
              <mxPoint x="240" y="20" />
            </Array>
          </mxGeometry>
        </mxCell>
        <mxCell id="7N4UthXNP-1G5cpcZOay-5" value="" style="endArrow=none;html=1;rounded=0;edgeStyle=orthogonalEdgeStyle;endFill=0;" edge="1" parent="7N4UthXNP-1G5cpcZOay-2">
          <mxGeometry width="50" height="50" relative="1" as="geometry">
            <mxPoint x="236" as="sourcePoint" />
            <mxPoint x="160" as="targetPoint" />
            <Array as="points">
              <mxPoint x="180" />
              <mxPoint x="180" />
            </Array>
          </mxGeometry>
        </mxCell>
        <mxCell id="7N4UthXNP-1G5cpcZOay-6" value="" style="endArrow=none;html=1;rounded=0;edgeStyle=orthogonalEdgeStyle;endFill=0;" edge="1" parent="7N4UthXNP-1G5cpcZOay-2">
          <mxGeometry width="50" height="50" relative="1" as="geometry">
            <mxPoint x="160" as="sourcePoint" />
            <mxPoint x="80" y="20" as="targetPoint" />
            <Array as="points">
              <mxPoint x="160" y="20" />
              <mxPoint x="80" y="20" />
            </Array>
          </mxGeometry>
        </mxCell>
        <mxCell id="7N4UthXNP-1G5cpcZOay-7" value="" style="endArrow=none;html=1;rounded=0;edgeStyle=orthogonalEdgeStyle;endFill=0;" edge="1" parent="7N4UthXNP-1G5cpcZOay-2">
          <mxGeometry width="50" height="50" relative="1" as="geometry">
            <mxPoint x="80" y="20" as="sourcePoint" />
            <mxPoint y="20" as="targetPoint" />
            <Array as="points">
              <mxPoint x="80" y="20" />
            </Array>
          </mxGeometry>
        </mxCell>
        <mxCell id="7N4UthXNP-1G5cpcZOay-8" value="" style="rounded=0;whiteSpace=wrap;html=1;strokeColor=none;fillColor=#f5f5f5;fontColor=#333333;" vertex="1" parent="1">
          <mxGeometry x="400" y="462" width="80" height="20" as="geometry" />
        </mxCell>
        <mxCell id="7N4UthXNP-1G5cpcZOay-10" value="" style="group" vertex="1" connectable="0" parent="1">
          <mxGeometry x="320" y="310" width="320" height="20" as="geometry" />
        </mxCell>
        <mxCell id="7N4UthXNP-1G5cpcZOay-11" value="" style="endArrow=classic;html=1;rounded=0;edgeStyle=orthogonalEdgeStyle;endFill=1;" edge="1" parent="7N4UthXNP-1G5cpcZOay-10">
          <mxGeometry width="50" height="50" relative="1" as="geometry">
            <mxPoint as="sourcePoint" />
            <mxPoint x="80" as="targetPoint" />
            <Array as="points">
              <mxPoint x="40" />
              <mxPoint x="40" y="20" />
              <mxPoint x="80" y="20" />
              <mxPoint x="80" />
            </Array>
          </mxGeometry>
        </mxCell>
        <mxCell id="7N4UthXNP-1G5cpcZOay-12" value="" style="endArrow=classic;html=1;rounded=0;edgeStyle=orthogonalEdgeStyle;endFill=1;" edge="1" parent="7N4UthXNP-1G5cpcZOay-10">
          <mxGeometry width="50" height="50" relative="1" as="geometry">
            <mxPoint x="80" as="sourcePoint" />
            <mxPoint x="160" as="targetPoint" />
            <Array as="points">
              <mxPoint x="120" />
              <mxPoint x="120" y="20" />
              <mxPoint x="160" y="20" />
              <mxPoint x="160" />
            </Array>
          </mxGeometry>
        </mxCell>
        <mxCell id="7N4UthXNP-1G5cpcZOay-13" value="" style="endArrow=classic;html=1;rounded=0;edgeStyle=orthogonalEdgeStyle;endFill=1;" edge="1" parent="7N4UthXNP-1G5cpcZOay-10">
          <mxGeometry width="50" height="50" relative="1" as="geometry">
            <mxPoint x="160" as="sourcePoint" />
            <mxPoint x="240" as="targetPoint" />
            <Array as="points">
              <mxPoint x="200" />
              <mxPoint x="200" y="20" />
              <mxPoint x="240" y="20" />
              <mxPoint x="240" />
            </Array>
          </mxGeometry>
        </mxCell>
        <mxCell id="7N4UthXNP-1G5cpcZOay-14" value="" style="endArrow=none;html=1;rounded=0;edgeStyle=orthogonalEdgeStyle;endFill=0;" edge="1" parent="7N4UthXNP-1G5cpcZOay-10">
          <mxGeometry width="50" height="50" relative="1" as="geometry">
            <mxPoint x="240" as="sourcePoint" />
            <mxPoint x="320" y="20" as="targetPoint" />
            <Array as="points">
              <mxPoint x="280" />
              <mxPoint x="280" y="20" />
            </Array>
          </mxGeometry>
        </mxCell>
        <mxCell id="7N4UthXNP-1G5cpcZOay-16" value="" style="group" vertex="1" connectable="0" parent="1">
          <mxGeometry x="320" y="462" width="320" height="20" as="geometry" />
        </mxCell>
        <mxCell id="7N4UthXNP-1G5cpcZOay-17" value="" style="endArrow=none;html=1;rounded=0;edgeStyle=orthogonalEdgeStyle;endFill=0;" edge="1" parent="7N4UthXNP-1G5cpcZOay-16">
          <mxGeometry width="50" height="50" relative="1" as="geometry">
            <mxPoint y="20" as="sourcePoint" />
            <mxPoint x="84" as="targetPoint" />
            <Array as="points">
              <mxPoint y="20" />
              <mxPoint x="80" y="20" />
            </Array>
          </mxGeometry>
        </mxCell>
        <mxCell id="7N4UthXNP-1G5cpcZOay-18" value="" style="endArrow=none;html=1;rounded=0;edgeStyle=orthogonalEdgeStyle;endFill=0;" edge="1" parent="7N4UthXNP-1G5cpcZOay-16">
          <mxGeometry width="50" height="50" relative="1" as="geometry">
            <mxPoint x="84" as="sourcePoint" />
            <mxPoint x="160" as="targetPoint" />
            <Array as="points">
              <mxPoint x="140" />
              <mxPoint x="140" />
            </Array>
          </mxGeometry>
        </mxCell>
        <mxCell id="7N4UthXNP-1G5cpcZOay-19" value="" style="endArrow=none;html=1;rounded=0;edgeStyle=orthogonalEdgeStyle;endFill=0;" edge="1" parent="7N4UthXNP-1G5cpcZOay-16">
          <mxGeometry width="50" height="50" relative="1" as="geometry">
            <mxPoint x="160" as="sourcePoint" />
            <mxPoint x="240" y="20" as="targetPoint" />
            <Array as="points">
              <mxPoint x="160" y="20" />
              <mxPoint x="240" y="20" />
            </Array>
          </mxGeometry>
        </mxCell>
        <mxCell id="7N4UthXNP-1G5cpcZOay-20" value="" style="endArrow=none;html=1;rounded=0;edgeStyle=orthogonalEdgeStyle;endFill=0;" edge="1" parent="7N4UthXNP-1G5cpcZOay-16">
          <mxGeometry width="50" height="50" relative="1" as="geometry">
            <mxPoint x="240" y="20" as="sourcePoint" />
            <mxPoint x="320" y="20" as="targetPoint" />
            <Array as="points">
              <mxPoint x="240" y="20" />
            </Array>
          </mxGeometry>
        </mxCell>
        <mxCell id="7N4UthXNP-1G5cpcZOay-21" value="" style="group" vertex="1" connectable="0" parent="1">
          <mxGeometry x="320" y="514" width="320" height="20" as="geometry" />
        </mxCell>
        <mxCell id="7N4UthXNP-1G5cpcZOay-22" value="" style="rounded=0;whiteSpace=wrap;html=1;strokeColor=none;fillColor=#f5f5f5;fontColor=#333333;" vertex="1" parent="7N4UthXNP-1G5cpcZOay-21">
          <mxGeometry x="80" width="160" height="20" as="geometry" />
        </mxCell>
        <mxCell id="7N4UthXNP-1G5cpcZOay-23" value="" style="endArrow=none;html=1;rounded=0;edgeStyle=orthogonalEdgeStyle;endFill=0;" edge="1" parent="7N4UthXNP-1G5cpcZOay-21">
          <mxGeometry width="50" height="50" relative="1" as="geometry">
            <mxPoint y="20" as="sourcePoint" />
            <mxPoint x="84" as="targetPoint" />
            <Array as="points">
              <mxPoint y="20" />
              <mxPoint x="80" y="20" />
            </Array>
          </mxGeometry>
        </mxCell>
        <mxCell id="7N4UthXNP-1G5cpcZOay-24" value="" style="endArrow=none;html=1;rounded=0;edgeStyle=orthogonalEdgeStyle;endFill=0;" edge="1" parent="7N4UthXNP-1G5cpcZOay-21">
          <mxGeometry width="50" height="50" relative="1" as="geometry">
            <mxPoint x="84" as="sourcePoint" />
            <mxPoint x="160" as="targetPoint" />
            <Array as="points">
              <mxPoint x="140" />
              <mxPoint x="140" />
            </Array>
          </mxGeometry>
        </mxCell>
        <mxCell id="7N4UthXNP-1G5cpcZOay-25" value="" style="endArrow=none;html=1;rounded=0;edgeStyle=orthogonalEdgeStyle;endFill=0;" edge="1" parent="7N4UthXNP-1G5cpcZOay-21">
          <mxGeometry width="50" height="50" relative="1" as="geometry">
            <mxPoint x="160" as="sourcePoint" />
            <mxPoint x="240" y="20" as="targetPoint" />
            <Array as="points">
              <mxPoint x="240" />
            </Array>
          </mxGeometry>
        </mxCell>
        <mxCell id="7N4UthXNP-1G5cpcZOay-26" value="" style="endArrow=none;html=1;rounded=0;edgeStyle=orthogonalEdgeStyle;endFill=0;" edge="1" parent="7N4UthXNP-1G5cpcZOay-21">
          <mxGeometry width="50" height="50" relative="1" as="geometry">
            <mxPoint x="240" y="20" as="sourcePoint" />
            <mxPoint x="320" y="20" as="targetPoint" />
            <Array as="points">
              <mxPoint x="240" y="20" />
            </Array>
          </mxGeometry>
        </mxCell>
        <mxCell id="7N4UthXNP-1G5cpcZOay-27" value="" style="group" vertex="1" connectable="0" parent="1">
          <mxGeometry x="320" y="544" width="320" height="20" as="geometry" />
        </mxCell>
        <mxCell id="7N4UthXNP-1G5cpcZOay-28" value="" style="endArrow=none;html=1;rounded=0;edgeStyle=orthogonalEdgeStyle;endFill=0;" edge="1" parent="7N4UthXNP-1G5cpcZOay-27">
          <mxGeometry width="50" height="50" relative="1" as="geometry">
            <mxPoint y="16" as="sourcePoint" />
            <mxPoint x="84" y="16" as="targetPoint" />
            <Array as="points">
              <mxPoint y="16" />
              <mxPoint x="80" y="16" />
            </Array>
          </mxGeometry>
        </mxCell>
        <mxCell id="7N4UthXNP-1G5cpcZOay-29" value="" style="endArrow=none;html=1;rounded=0;edgeStyle=orthogonalEdgeStyle;endFill=0;" edge="1" parent="7N4UthXNP-1G5cpcZOay-27">
          <mxGeometry width="50" height="50" relative="1" as="geometry">
            <mxPoint x="84" y="16" as="sourcePoint" />
            <mxPoint x="160" y="16" as="targetPoint" />
            <Array as="points">
              <mxPoint x="84" y="16" />
              <mxPoint x="160" y="16" />
            </Array>
          </mxGeometry>
        </mxCell>
        <mxCell id="7N4UthXNP-1G5cpcZOay-30" value="" style="endArrow=none;html=1;rounded=0;edgeStyle=orthogonalEdgeStyle;endFill=0;" edge="1" parent="7N4UthXNP-1G5cpcZOay-27">
          <mxGeometry width="50" height="50" relative="1" as="geometry">
            <mxPoint x="160" y="16" as="sourcePoint" />
            <mxPoint x="240" y="16" as="targetPoint" />
            <Array as="points">
              <mxPoint x="160" y="16" />
            </Array>
          </mxGeometry>
        </mxCell>
        <mxCell id="7N4UthXNP-1G5cpcZOay-31" value="" style="endArrow=none;html=1;rounded=0;edgeStyle=orthogonalEdgeStyle;endFill=0;" edge="1" parent="7N4UthXNP-1G5cpcZOay-27">
          <mxGeometry width="50" height="50" relative="1" as="geometry">
            <mxPoint x="240" y="16" as="sourcePoint" />
            <mxPoint x="320" y="16" as="targetPoint" />
            <Array as="points">
              <mxPoint x="240" y="16" />
            </Array>
          </mxGeometry>
        </mxCell>
        <mxCell id="7N4UthXNP-1G5cpcZOay-32" value="" style="group" vertex="1" connectable="0" parent="1">
          <mxGeometry x="320" y="336" width="323" height="20" as="geometry" />
        </mxCell>
        <mxCell id="7N4UthXNP-1G5cpcZOay-33" value="" style="shape=hexagon;perimeter=hexagonPerimeter2;whiteSpace=wrap;html=1;fixedSize=1;size=4.615384615384585;fillColor=#E3E3E3;fontColor=#333333;strokeColor=#666666;" vertex="1" parent="7N4UthXNP-1G5cpcZOay-32">
          <mxGeometry width="82" height="20" as="geometry" />
        </mxCell>
        <mxCell id="7N4UthXNP-1G5cpcZOay-34" value="VALID" style="shape=hexagon;perimeter=hexagonPerimeter2;whiteSpace=wrap;html=1;fixedSize=1;size=4.615384615384585;" vertex="1" parent="7N4UthXNP-1G5cpcZOay-32">
          <mxGeometry x="82" width="82" height="20" as="geometry" />
        </mxCell>
        <mxCell id="7N4UthXNP-1G5cpcZOay-35" value="" style="shape=hexagon;perimeter=hexagonPerimeter2;whiteSpace=wrap;html=1;fixedSize=1;size=4.615384615384585;fillColor=#E3E3E3;fontColor=#333333;strokeColor=#666666;" vertex="1" parent="7N4UthXNP-1G5cpcZOay-32">
          <mxGeometry x="164" width="159" height="20" as="geometry" />
        </mxCell>
        <mxCell id="7N4UthXNP-1G5cpcZOay-40" value="" style="group" vertex="1" connectable="0" parent="1">
          <mxGeometry x="320" y="436" width="323" height="20" as="geometry" />
        </mxCell>
        <mxCell id="7N4UthXNP-1G5cpcZOay-41" value="" style="shape=hexagon;perimeter=hexagonPerimeter2;whiteSpace=wrap;html=1;fixedSize=1;size=4.615384615384585;fillColor=#E3E3E3;fontColor=#333333;strokeColor=#666666;" vertex="1" parent="7N4UthXNP-1G5cpcZOay-40">
          <mxGeometry width="82" height="20" as="geometry" />
        </mxCell>
        <mxCell id="7N4UthXNP-1G5cpcZOay-42" value="VALID" style="shape=hexagon;perimeter=hexagonPerimeter2;whiteSpace=wrap;html=1;fixedSize=1;size=4.615384615384585;" vertex="1" parent="7N4UthXNP-1G5cpcZOay-40">
          <mxGeometry x="82" width="82" height="20" as="geometry" />
        </mxCell>
        <mxCell id="7N4UthXNP-1G5cpcZOay-43" value="" style="shape=hexagon;perimeter=hexagonPerimeter2;whiteSpace=wrap;html=1;fixedSize=1;size=4.615384615384585;fillColor=#E3E3E3;fontColor=#333333;strokeColor=#666666;" vertex="1" parent="7N4UthXNP-1G5cpcZOay-40">
          <mxGeometry x="164" width="159" height="20" as="geometry" />
        </mxCell>
        <mxCell id="7N4UthXNP-1G5cpcZOay-44" value="clk_i" style="text;html=1;align=right;verticalAlign=middle;resizable=0;points=[];autosize=1;strokeColor=none;fillColor=none;" vertex="1" parent="1">
          <mxGeometry x="260" y="305" width="50" height="30" as="geometry" />
        </mxCell>
        <mxCell id="7N4UthXNP-1G5cpcZOay-45" value="adr_o" style="text;html=1;align=right;verticalAlign=middle;resizable=0;points=[];autosize=1;strokeColor=none;fillColor=none;" vertex="1" parent="1">
          <mxGeometry x="260" y="330" width="50" height="30" as="geometry" />
        </mxCell>
        <mxCell id="7N4UthXNP-1G5cpcZOay-46" value="dat_i" style="text;html=1;align=right;verticalAlign=middle;resizable=0;points=[];autosize=1;strokeColor=none;fillColor=none;" vertex="1" parent="1">
          <mxGeometry x="260" y="356" width="50" height="30" as="geometry" />
        </mxCell>
        <mxCell id="7N4UthXNP-1G5cpcZOay-47" value="dat_o" style="text;html=1;align=right;verticalAlign=middle;resizable=0;points=[];autosize=1;strokeColor=none;fillColor=none;" vertex="1" parent="1">
          <mxGeometry x="260" y="381" width="50" height="30" as="geometry" />
        </mxCell>
        <mxCell id="7N4UthXNP-1G5cpcZOay-48" value="we_o" style="text;html=1;align=right;verticalAlign=middle;resizable=0;points=[];autosize=1;strokeColor=none;fillColor=none;" vertex="1" parent="1">
          <mxGeometry x="261" y="407" width="50" height="30" as="geometry" />
        </mxCell>
        <mxCell id="7N4UthXNP-1G5cpcZOay-49" value="sel_o" style="text;html=1;align=right;verticalAlign=middle;resizable=0;points=[];autosize=1;strokeColor=none;fillColor=none;" vertex="1" parent="1">
          <mxGeometry x="261" y="432" width="50" height="30" as="geometry" />
        </mxCell>
        <mxCell id="7N4UthXNP-1G5cpcZOay-50" value="stb_o" style="text;html=1;align=right;verticalAlign=middle;resizable=0;points=[];autosize=1;strokeColor=none;fillColor=none;" vertex="1" parent="1">
          <mxGeometry x="261" y="458" width="50" height="30" as="geometry" />
        </mxCell>
        <mxCell id="7N4UthXNP-1G5cpcZOay-51" value="ack_i" style="text;html=1;align=right;verticalAlign=middle;resizable=0;points=[];autosize=1;strokeColor=none;fillColor=none;" vertex="1" parent="1">
          <mxGeometry x="261" y="483" width="50" height="30" as="geometry" />
        </mxCell>
        <mxCell id="7N4UthXNP-1G5cpcZOay-52" value="cyc_o" style="text;html=1;align=right;verticalAlign=middle;resizable=0;points=[];autosize=1;strokeColor=none;fillColor=none;" vertex="1" parent="1">
          <mxGeometry x="261" y="509" width="50" height="30" as="geometry" />
        </mxCell>
        <mxCell id="7N4UthXNP-1G5cpcZOay-53" value="stall_i" style="text;html=1;align=right;verticalAlign=middle;resizable=0;points=[];autosize=1;strokeColor=none;fillColor=none;" vertex="1" parent="1">
          <mxGeometry x="261" y="534" width="50" height="30" as="geometry" />
        </mxCell>
        <mxCell id="7N4UthXNP-1G5cpcZOay-58" value="" style="shape=hexagon;perimeter=hexagonPerimeter2;whiteSpace=wrap;html=1;fixedSize=1;size=4.615384615384585;fillColor=#E3E3E3;fontColor=#333333;strokeColor=#666666;" vertex="1" parent="1">
          <mxGeometry x="319.5" y="362" width="323" height="20" as="geometry" />
        </mxCell>
        <mxCell id="7N4UthXNP-1G5cpcZOay-59" value="" style="group" vertex="1" connectable="0" parent="1">
          <mxGeometry x="320" y="388" width="323" height="20" as="geometry" />
        </mxCell>
        <mxCell id="7N4UthXNP-1G5cpcZOay-60" value="" style="shape=hexagon;perimeter=hexagonPerimeter2;whiteSpace=wrap;html=1;fixedSize=1;size=4.615384615384585;fillColor=#E3E3E3;fontColor=#333333;strokeColor=#666666;" vertex="1" parent="7N4UthXNP-1G5cpcZOay-59">
          <mxGeometry width="82" height="20" as="geometry" />
        </mxCell>
        <mxCell id="7N4UthXNP-1G5cpcZOay-61" value="VALID" style="shape=hexagon;perimeter=hexagonPerimeter2;whiteSpace=wrap;html=1;fixedSize=1;size=4.615384615384585;" vertex="1" parent="7N4UthXNP-1G5cpcZOay-59">
          <mxGeometry x="82" width="82" height="20" as="geometry" />
        </mxCell>
        <mxCell id="7N4UthXNP-1G5cpcZOay-62" value="" style="shape=hexagon;perimeter=hexagonPerimeter2;whiteSpace=wrap;html=1;fixedSize=1;size=4.615384615384585;fillColor=#E3E3E3;fontColor=#333333;strokeColor=#666666;" vertex="1" parent="7N4UthXNP-1G5cpcZOay-59">
          <mxGeometry x="164" width="159" height="20" as="geometry" />
        </mxCell>
        <mxCell id="7N4UthXNP-1G5cpcZOay-63" value="" style="group" vertex="1" connectable="0" parent="1">
          <mxGeometry x="320.5" y="410" width="320" height="20" as="geometry" />
        </mxCell>
        <mxCell id="7N4UthXNP-1G5cpcZOay-68" value="" style="rounded=0;whiteSpace=wrap;html=1;strokeColor=none;fillColor=#f5f5f5;fontColor=#333333;" vertex="1" parent="7N4UthXNP-1G5cpcZOay-63">
          <mxGeometry x="80.5" width="79" height="20" as="geometry" />
        </mxCell>
        <mxCell id="7N4UthXNP-1G5cpcZOay-64" value="" style="endArrow=none;html=1;rounded=0;edgeStyle=orthogonalEdgeStyle;endFill=0;" edge="1" parent="7N4UthXNP-1G5cpcZOay-63">
          <mxGeometry width="50" height="50" relative="1" as="geometry">
            <mxPoint y="20" as="sourcePoint" />
            <mxPoint x="84" as="targetPoint" />
            <Array as="points">
              <mxPoint y="20" />
              <mxPoint x="80" y="20" />
            </Array>
          </mxGeometry>
        </mxCell>
        <mxCell id="7N4UthXNP-1G5cpcZOay-65" value="" style="endArrow=none;html=1;rounded=0;edgeStyle=orthogonalEdgeStyle;endFill=0;" edge="1" parent="7N4UthXNP-1G5cpcZOay-63">
          <mxGeometry width="50" height="50" relative="1" as="geometry">
            <mxPoint x="84" as="sourcePoint" />
            <mxPoint x="160" as="targetPoint" />
            <Array as="points">
              <mxPoint x="140" />
              <mxPoint x="140" />
            </Array>
          </mxGeometry>
        </mxCell>
        <mxCell id="7N4UthXNP-1G5cpcZOay-66" value="" style="endArrow=none;html=1;rounded=0;edgeStyle=orthogonalEdgeStyle;endFill=0;" edge="1" parent="7N4UthXNP-1G5cpcZOay-63">
          <mxGeometry width="50" height="50" relative="1" as="geometry">
            <mxPoint x="160" as="sourcePoint" />
            <mxPoint x="240" y="20" as="targetPoint" />
            <Array as="points">
              <mxPoint x="160" y="20" />
              <mxPoint x="240" y="20" />
            </Array>
          </mxGeometry>
        </mxCell>
        <mxCell id="7N4UthXNP-1G5cpcZOay-67" value="" style="endArrow=none;html=1;rounded=0;edgeStyle=orthogonalEdgeStyle;endFill=0;" edge="1" parent="7N4UthXNP-1G5cpcZOay-63">
          <mxGeometry width="50" height="50" relative="1" as="geometry">
            <mxPoint x="240" y="20" as="sourcePoint" />
            <mxPoint x="320" y="20" as="targetPoint" />
            <Array as="points">
              <mxPoint x="240" y="20" />
            </Array>
          </mxGeometry>
        </mxCell>
      </root>
    </mxGraphModel>
  </diagram>
</mxfile>
